/* XPM */
static char *Q2FtX0ljb24_[] = {
/* columns rows colors chars-per-pixel */
"80 80 2 1 ",
"  c white",
". c None",
/* pixels */
"................................................................................",
"................................................................................",
"................................................................................",
"................................................................................",
"................................................................................",
"................................................................................",
"................................................................................",
"................................................................................",
"............................       .............................................",
".........................             ..........................................",
".......................                 ........................................",
"......................                    ......................................",
".....................                      .....................................",
"....................                        ....................................",
"...................                          ...................................",
"..................                           ...............    ................",
"..................                            ...........          .............",
".................                             .........              ...........",
".................                              .......                ..........",
".................                              ......                  .........",
"................                               .....                    ........",
"................                               ....                      .......",
"................                               ....                      .......",
"................                                ..                       .......",
"................                                ..                        ......",
"................                               ...                        ......",
"................                               ...                        ......",
"................                               ...                        ......",
".................                              ...                        ......",
".................                             ....                        ......",
"..................                            ....                        ......",
"..................                            ....                        ......",
"...................                          ......                      .......",
"...................                         .......                      .......",
"....................                       .........                    ........",
".....................                     ...........                  .........",
"......................                   .............                ..........",
".......................                  .............               ...........",
"...................                                                  ...........",
"..................                                                   ...........",
"..................                                                    ..........",
"..................                                                    ..........",
"....... ..........                                                    ..........",
"......    ........                                                    ..........",
"......      ......                                                    ..........",
"......        ...                                                     ..........",
"......                                                                ..........",
"......                                                                ..........",
"......                                                                ..........",
"......                                                                ..........",
"......                                                                ..........",
"......                                                                ..........",
"......                                                                ..........",
"......                                                                ..........",
"......                                                                ..........",
"......                                                                ..........",
"......                                                                ..........",
"......                                                                ..........",
"......                                                                ..........",
"......                                                                ..........",
"......                                                                ..........",
"......                                                                ..........",
"......        ...                                                     ..........",
"......      ......                                                    ..........",
"......    ........                                                    ..........",
"..................                                                    ..........",
"..................                                                    ..........",
"..................                                                    ..........",
"..................                                                   ...........",
"................................................................................",
"................................................................................",
"................................................................................",
"................................................................................",
"................................................................................",
"................................................................................",
"................................................................................",
"................................................................................",
"................................................................................",
"................................................................................",
"................................................................................"
};
