/* XPM */
static char *Y29faWNvbg__[] = {
/* columns rows colors chars-per-pixel */
"80 80 2 1 ",
"  c white",
". c None",
/* pixels */
"................................................................................",
"................................................................................",
"................................................................................",
"................................................................................",
"................................................................................",
"................................................................................",
"................................................................................",
".......................................  .......................................",
"......................................    ......................................",
"......................................    ......................................",
".....................................      .....................................",
".....................................      .....................................",
"....................................        ....................................",
"....................................        ....................................",
"...................................          ...................................",
"..................................            ..................................",
"..................................            ..................................",
".................................              .................................",
".................................              .................................",
"................................         ...    ................................",
"...............................          ....    ...............................",
"...............................          ....    ...............................",
"..............................            ....    ..............................",
"..............................            .....   ..............................",
".............................              ....    .............................",
".............................               ....   .............................",
"............................                ....    ............................",
"...........................                  ....    ...........................",
"...........................                  ....    ...........................",
"..........................                    ....    ..........................",
"..........................                    .....   ..........................",
".........................                      ....    .........................",
".........................                       ....   .........................",
"........................                        ....    ........................",
".......................                          ....    .......................",
".......................                          ....    .......................",
"......................                            ....    ......................",
"......................                            .....   ......................",
".....................                              ....    .....................",
"....................                                ....    ....................",
"....................                                ....    ....................",
"...................                                  ....    ...................",
"...................                                  .....   ...................",
"..................                                    ....    ..................",
"..................                                     ....   ..................",
".................                                      ....    .................",
"................                                        ....    ................",
"................                                        ....    ................",
"...............                                          ....    ...............",
"...............                                          .....   ...............",
"..............                                            ....    ..............",
"..............                                             ....   ..............",
".............                                              ....    .............",
"............                                                ....    ............",
"............                                                ....    ............",
"...........                                                  ....    ...........",
"...........                                                  .....   ...........",
"..........                                                    ....    ..........",
".........                                                      ....    .........",
".........                                                      ....    .........",
"........                                                        ....    ........",
"........                                                        ....    ........",
".......                                                          ....    .......",
"......                                                           ....     ......",
"......                                                            ...     ......",
"......                                                                    ......",
".......                                                                  .......",
"........                                                                ........",
"..........                                                            ..........",
"............                                                        ............",
"................                                                ................",
"....................                                        ....................",
"............................                        ............................",
"................................................................................",
"................................................................................",
"................................................................................",
"................................................................................",
"................................................................................",
"................................................................................",
"................................................................................"
};
