/* XPM */
static char *cGxfaWNvbg__[] = {
/* columns rows colors chars-per-pixel */
"80 80 2 1 ",
"  c white",
". c None",
/* pixels */
"................................................................................",
"................................................................................",
"................................................................................",
"................................................................................",
"................................................................................",
"................................................................................",
"................................................................................",
"................................................................................",
"................................................................................",
"................................................................................",
"................................................................................",
"................................................................................",
"................................................................................",
"................................................................................",
"................................................................................",
"................................................................................",
"................................................................................",
"................................................................................",
"..........................                                                  ....",
".........................                                                  .....",
".........................                                                  .....",
"........................                                                  ......",
"........................                                                  ......",
".......................                                                  .......",
".......................                                                  .......",
"......................                                                  ........",
"......................                                                  ........",
".....................                                                  .........",
".....................                                                  .........",
"....................                                                  ..........",
"....................                                                  ..........",
"...................                                                  ...........",
"...................                                                  ...........",
"..................                                                  ............",
"..................                                                  ............",
".................                                                  .............",
".................                                                  .............",
"................                                                  ..............",
"................                                                  ..............",
"...............                                                  ...............",
"...............                                                  ...............",
"..............                                                  ................",
"..............                                                  ................",
".............                                                  .................",
".............                                                  .................",
"............                                                  ..................",
"............                                                  ..................",
"...........                                                  ...................",
"...........                                                  ...................",
"..........                                                  ....................",
"..........                                                  ....................",
".........                                                  .....................",
".........                                                  .....................",
"........                                                  ......................",
"........                                                  ......................",
".......                                                  .......................",
".......                                                  .......................",
"......                                                  ........................",
"......                                                  ........................",
".....                                                  .........................",
".....                                                  .........................",
"....                                                  ..........................",
"................................................................................",
"................................................................................",
"................................................................................",
"................................................................................",
"................................................................................",
"................................................................................",
"................................................................................",
"................................................................................",
"................................................................................",
"................................................................................",
"................................................................................",
"................................................................................",
"................................................................................",
"................................................................................",
"................................................................................",
"................................................................................",
"................................................................................",
"................................................................................"
};
